<svg xmlns="http://www.w3.org/2000/svg" xmlns:xlink="http://www.w3.org/1999/xlink" width="500" height="500" viewBox="30.5 -6 500 500">
  <defs>
    <style>
      .cls-1 {
        fill: #db9600;
        fill-rule: evenodd;
      }
    </style>
    <clipPath id="clip-path">
      <rect width="561" height="488"/>
    </clipPath>
  </defs>
  <g clip-path="url(#clip-path)">
    <path id="Forma_1" data-name="Forma 1" class="cls-1" d="M110.3,52H163.15L150.715,223.133H124.292l4.663-52.9H113.412l-9.326,52.9H74.554Zm20.206,23.336h7.772L132.064,146.9H118.075Zm49.738-21.78h24.869l-17.1,144.685h17.1l-3.109,21.78H156.933ZM233.094,52h24.869L239.311,198.241h17.1l-3.108,21.78H208.225Zm49.737,1.556L259.517,220.021H285.94l7.772-68.453s13.988,2,18.651,0a36.9,36.9,0,0,0,21.761-24.892c4.44-16.669,8.215-37.116,6.217-54.451s-13.989-18.669-13.989-18.669H282.831Zm73.053,0L332.569,221.577h24.869l10.88-74.676,12.435-1.556-9.326,74.676H396.3l21.76-166.465H394.742l-9.326,68.453H372.981l7.772-68.453H355.884Zm79.27,0H488L475.566,223.133H450.7l3.108-52.9H439.816l-10.88,49.784H400.959Zm6.217,93.345h15.543l6.217-71.565H455.36Zm-143-18.669,7.771-52.9s6.528-1.57,7.772,6.223c1.232,7.723.652,20.512-.151,26.364C308.367,128.01,298.375,128.232,298.375,128.232ZM73,431.6h27.978l10.88-82.454,1.554,82.454h24.869l21.76-84.01-9.326,84.01h27.978l23.314-180.467H166.258l-27.977,96.457V251.136H99.423ZM216,251.136h26.423L222.213,406.711h9.326L253.3,251.136h27.977s-10.658,101.791-21.76,155.575c-18.874,46.006-67.5,31.782-65.281,0C195.79,376.485,216,251.136,216,251.136ZM278.169,361.6h27.977s-8.805,41.446-4.663,46.672c3.468,4.376,8.5.587,10.88-3.111,6.247-9.7,8.882-34.671,3.109-46.673s-23.759-15.335-26.423-28-0.4-42.386,3.108-57.563c3.81-16.484,25.286-27.467,44.964-23.151,17.414,3.818,15.6,18.27,15.654,16.928v48.228L324.8,313.366a210.631,210.631,0,0,0,3.108-29.559c0.444-15.557-7.993-10.446-9.325-4.667-3.775,4.445-5.552,22.892-4.663,34.226S341.9,332.258,345,350.7c0.222,18.225,1.186,16.96-1.293,45.955-10.151,58.355-78.328,48.606-69.633.85C276.638,367.392,278.16,361.6,278.169,361.6Zm96.367-112.014h26.423L379.2,431.6H348.112Zm73.052-1.556c21.538-.445,30.2,11.335,31.086,23.336s-6.217,57.563-6.217,57.563H444.479s3.988-38.02,4.663-46.673c0.967-12.394-9.585-11.277-12.434-1.555-2,6.827-14.913,116.32-15.543,121.348-1.14,9.1,14.4,14.892,15.011-3.147,0.243-7.194,2.695-46.642,3.64-46.637l27.978-1.556s-3.8,25.78-4.663,45.117c-2.186,48.87-69.7,55.195-68.389,9.335,0.6-21.107,10.658-116.237,13.988-127.572S426.05,248.469,447.588,248.025ZM-93.311,363.15,615.453,227.8"/>
  </g>
</svg>
